<?xml version="1.0" encoding="UTF-8" standalone="no"?>
<svg
   width="763.24493"
   height="528.33429"
   version="1.1"
   id="svg906"
   sodipodi:docname="cover.svg"
   inkscape:version="1.1 (c4e8f9ed74, 2021-05-24)"
   xmlns:inkscape="http://www.inkscape.org/namespaces/inkscape"
   xmlns:sodipodi="http://sodipodi.sourceforge.net/DTD/sodipodi-0.dtd"
   xmlns="http://www.w3.org/2000/svg"
   xmlns:svg="http://www.w3.org/2000/svg"
   xmlns:rdf="http://www.w3.org/1999/02/22-rdf-syntax-ns#"
   xmlns:cc="http://creativecommons.org/ns#"
   xmlns:dc="http://purl.org/dc/elements/1.1/">
  <defs
     id="defs910">
    <linearGradient
       id="linearGradient5338">
      <stop
         style="stop-color:#e1d7d7;stop-opacity:1;"
         offset="0"
         id="stop5340" />
    </linearGradient>
  </defs>
  <sodipodi:namedview
     id="namedview908"
     pagecolor="#ffffff"
     bordercolor="#666666"
     borderopacity="1.0"
     inkscape:pageshadow="2"
     inkscape:pageopacity="0.0"
     inkscape:pagecheckerboard="0"
     showgrid="false"
     inkscape:snap-global="false"
     fit-margin-top="0"
     fit-margin-left="0"
     fit-margin-right="0"
     fit-margin-bottom="0"
     inkscape:zoom="1.4939502"
     inkscape:cx="502.35944"
     inkscape:cy="325.98141"
     inkscape:window-width="1916"
     inkscape:window-height="1029"
     inkscape:window-x="0"
     inkscape:window-y="0"
     inkscape:window-maximized="1"
     inkscape:current-layer="layer2" />
  <metadata
     id="metadata7">
    <rdf:RDF>
      <cc:Work
         rdf:about="">
        <dc:format>image/svg+xml</dc:format>
        <dc:type
           rdf:resource="http://purl.org/dc/dcmitype/StillImage" />
      </cc:Work>
    </rdf:RDF>
  </metadata>
  <g
     id="g1152"
     transform="matrix(-1,0,0,1,865.38723,65.217516)">
    <g
       id="layer2"
       style="display:inline"
       transform="translate(3.6422951,-3.938116)">
      <path
         style="display:inline;fill:#3d3d3d;fill-opacity:1;stroke:#000000;stroke-width:3.75;stroke-linecap:butt;stroke-linejoin:miter;stroke-miterlimit:4;stroke-dasharray:none;stroke-opacity:1"
         d="m 198.25,101.875 c 0,0 -14.91649,-5.697627 -19.375,-13.125 -4.45851,-7.427373 -22.67845,-17.425281 -19.375,16.25 1.5847,7.89403 11.875,12.5 11.875,12.5"
         id="path3806" />
      <path
         style="fill:#3d3d3d;fill-opacity:1;stroke:#000000;stroke-width:3.75;stroke-linecap:butt;stroke-linejoin:miter;stroke-miterlimit:4;stroke-dasharray:none;stroke-opacity:1"
         d="m 107.66087,316.09491 c 0,0 -15.666461,-74.37707 1.25,-111.25 16.91646,-36.87293 36.78663,-70.244 59.375,-86.25 22.58837,-16.006 56.32223,-35.199072 82.5,-37.499999 26.17777,-2.300927 51.92522,8.403421 73.75,30.624999 21.82478,22.22158 44.4415,58.19849 60.625,86.875 16.1835,28.67651 20.46875,58.59375 20.46875,58.59375 l 86.83635,104.25623 10.37377,42.57271 -21.32517,0.0728 -328.2287,1.12062 c 10.23662,-58.32468 27.73598,-94.00363 64.375,-117.86612 36.63902,-23.86249 43.30889,-25.68405 37.5,-40.625 -5.80889,-14.94095 -42.96923,-2.03236 -71.25,11.25 -28.28077,13.28236 -35.625,63.125 -35.625,63.125 -16.87625,8.51464 -31.03955,7.62854 -40.625,-5 z"
         id="path3797"
         sodipodi:nodetypes="cssssscccccssscc" />
      <path
         style="display:inline;fill:#3d3d3d;fill-opacity:1;stroke:#000000;stroke-width:3.75;stroke-linecap:butt;stroke-linejoin:miter;stroke-miterlimit:4;stroke-dasharray:none;stroke-opacity:1"
         d="m 220.75,91.875 c 0,0 25.64751,-54.738147 41.25,-53.75 15.60249,0.988147 15.3945,21.028717 10,39.375 -5.3945,18.346283 7.4776,17.572637 5,28.75 -2.4776,11.17736 -30,13.75 -30,13.75"
         id="path3802" />
      <path
         style="display:inline;fill:none;stroke:#736969;stroke-width:3.75;stroke-linecap:butt;stroke-linejoin:miter;stroke-miterlimit:4;stroke-dasharray:none;stroke-opacity:1"
         d="m 253.875,77.5 c 0,0 -2.05074,19.727456 -11.875,22.5 7.67574,-5.352456 18.75,-4.375 18.75,-4.375"
         id="path3804" />
      <path
         style="fill:#e1d7d7;fill-opacity:1;stroke:none"
         d="m 165.61591,358.97434 c 0,0 315.64262,28.6876 348.68732,1.71362 l -43.85386,38.84625 -315.27541,2.53047 c 0.96051,-11.4286 10.44195,-43.09034 10.44195,-43.09034 z"
         id="path3838"
         sodipodi:nodetypes="ccccc" />
    </g>
    <g
       id="layer4"
       style="display:inline;fill:#3d3d3d;fill-opacity:1">
      <path
         style="fill:#3d3d3d;fill-opacity:1;stroke:#000000;stroke-width:3.75;stroke-linecap:butt;stroke-linejoin:miter;stroke-miterlimit:4;stroke-dasharray:none;stroke-opacity:1"
         d="m 390.16822,366.2308 c 0,0 -83.24803,8.63859 -104.41822,-16.8558 -4.60769,9.50561 -39.67121,22.08553 -52.1875,10 -12.51629,-12.08553 -10.37253,-44.64791 -6.5625,-55 3.81003,-10.35209 10.11095,-14.77423 13.125,-15 3.01405,-0.22577 6.91759,1.39646 6.91759,1.39646 4.12387,17.1185 6.40476,10.28325 5.58241,12.35354 l -8.125,0.625 h 18.75 l -10.625,-0.625 c -7.39308,-6.40597 -7.49625,-24.13702 -2.25413,-32.30393 5.24212,-8.16691 18.07455,-18.66409 24.12913,-17.69607 6.05458,0.96802 4.17363,29.35279 12.5,40.625 6.77958,-10.27245 26.11148,-9.65055 46.875,2.5 l -17.5,-8.75 c -3.97245,-10.12654 41.33933,-44.06042 61.97871,5.12316"
         id="path3812"
         sodipodi:nodetypes="ccssscccccsscccc" />
    </g>
    <g
       id="layer6"
       style="display:inline">
      <path
         style="fill:#ffffff;fill-opacity:1;stroke:#000000;stroke-width:3.75;stroke-linecap:butt;stroke-linejoin:miter;stroke-miterlimit:4;stroke-dasharray:none;stroke-opacity:1"
         d="m 230.92582,237.6167 c 0,0 37.7149,-14.56694 42.06029,-31.91784 4.34539,-17.3509 -4.88478,-22.48283 -9.3566,-24.6507 l -16.79379,2.65165 c 15.1018,-3.42194 11.79846,-2.34609 18.87406,-14.91879 l -3.84804,11.38326 c 27.66246,9.84185 61.19236,17.99473 51.68498,33.9889 -9.50738,15.99417 -39.50936,20.51273 -82.6209,23.46352 z"
         id="path3818" />
      <path
         style="fill:none;stroke:#000000;stroke-width:1.25;stroke-linecap:butt;stroke-linejoin:miter;stroke-miterlimit:4;stroke-dasharray:none;stroke-opacity:1"
         d="m 276.375,224.0625 c 0,0 13.75,-7.39583 15.46875,-13.28125 C 293.5625,204.89583 291.6875,197.5 291.6875,197.5"
         id="path3820" />
      <path
         style="fill:none;stroke:#000000;stroke-width:1.25;stroke-linecap:butt;stroke-linejoin:miter;stroke-miterlimit:4;stroke-dasharray:none;stroke-opacity:1"
         d="m 285.75,206.25 12.5,4.0625"
         id="path3830" />
      <path
         style="fill:none;stroke:#000000;stroke-width:1.25;stroke-linecap:butt;stroke-linejoin:miter;stroke-miterlimit:4;stroke-dasharray:none;stroke-opacity:1"
         d="m 282.625,215.9375 8.4375,3.125"
         id="path3832" />
    </g>
    <g
       id="layer5"
       style="display:inline">
      <path
         style="fill:#ffffff;fill-opacity:1;stroke:#000000;stroke-width:3.75;stroke-miterlimit:4;stroke-dasharray:none;stroke-opacity:1"
         id="path3815"
         d="m 235.113,169.55768 a 26.958447,30.052038 0 1 1 -53.91689,0 26.958447,30.052038 0 1 1 53.91689,0 z"
         transform="translate(1.1161165,-7.9549513)" />
      <path
         style="fill:#000000;fill-opacity:1;stroke:#000000;stroke-width:1.25;stroke-miterlimit:4;stroke-dasharray:none;stroke-opacity:1"
         id="path3834"
         d="m 226.875,161.875 a 13.4375,15.3125 0 1 1 -26.875,0 13.4375,15.3125 0 1 1 26.875,0 z"
         transform="translate(2)" />
      <path
         style="fill:#ffffff;fill-opacity:1;stroke:#ffffff;stroke-width:1.25;stroke-miterlimit:4;stroke-dasharray:none;stroke-opacity:1"
         id="path3836"
         d="m 221.875,154.53125 a 3.90625,3.90625 0 1 1 -7.8125,0 3.90625,3.90625 0 1 1 7.8125,0 z"
         transform="translate(2)" />
    </g>
  </g>
  <g
     id="layer1"
     transform="translate(-78.25385,-168.59784)">
    <g
       id="g3699"
       transform="matrix(1.532388,0,0,1.3939671,-54.912136,-41.792396)">
      <path
         id="path2836"
         d="M 260.50744,170.69515 105.98412,340.79094 259.8636,510.178 414.38691,340.08221 Z"
         style="fill:#019833;fill-opacity:1;stroke:#000000;stroke-width:0.945716px;stroke-linecap:butt;stroke-linejoin:miter;stroke-opacity:1" />
      <path
         id="path2838"
         d="M 259.8636,171.40389 V 156.52051 L 91.819492,341.49967 h 14.164628 z"
         style="fill:#66fe98;fill-opacity:1;stroke:#000000;stroke-width:0.945716px;stroke-linecap:butt;stroke-linejoin:miter;stroke-opacity:1" />
      <path
         style="fill:#45fe02;fill-opacity:1;stroke:#000000;stroke-width:0.945716px;stroke-linecap:butt;stroke-linejoin:miter;stroke-opacity:1"
         d="m 259.47729,171.40389 v -14.88338 l 168.0441,184.97916 h -14.16463 z"
         id="path2840" />
      <path
         style="fill:#017d17;fill-opacity:1;stroke:#000000;stroke-width:0.945716px;stroke-linecap:butt;stroke-linejoin:miter;stroke-opacity:1"
         d="M 259.8636,511.17022 V 526.0536 L 91.819492,341.07444 h 14.164628 z"
         id="path2842" />
      <path
         id="path3650"
         d="m 122.99448,175.30643 h 108.35396 l 6.60139,7.26665 v 22.30116 l -5.23559,7.01608 H 220.87725 V 322.64438 L 322.85744,211.89032 H 306.0125 l -5.9185,-7.01608 v -23.55403 l 5.46323,-5.51264 h 109.71976 l 5.46322,6.01379 v 22.05058 L 172.61878,484.01452 H 144.39212 L 136.22179,478.822 V 210.88803 h -13.68257 l -5.00795,-5.51264 v -23.55403 z"
         style="fill:none;stroke:#000000;stroke-width:18.9143;stroke-linecap:butt;stroke-linejoin:miter;stroke-miterlimit:4;stroke-dasharray:none;stroke-opacity:1" />
      <path
         id="path2844"
         d="M 259.47729,511.17022 V 526.0536 L 427.52139,341.07444 H 413.35676 Z"
         style="fill:#005d04;fill-opacity:1;stroke:#000000;stroke-width:0.945716px;stroke-linecap:butt;stroke-linejoin:miter;stroke-opacity:1" />
      <path
         style="fill:none;stroke:#000000;stroke-width:5.67429;stroke-linecap:butt;stroke-linejoin:miter;stroke-miterlimit:4;stroke-dasharray:none;stroke-opacity:1"
         d="M 259.41018,155.14848 90.734026,340.82339 258.70737,525.72467 427.38353,340.04975 Z"
         id="path2846" />
      <path
         id="path3640"
         d="m 232.50008,186.64163 6.11655,-3.54366 -6.27751,-6.91014 H 123.04607 l -5.55319,6.11281 v 23.1224 l 6.15679,6.77725 2.93756,-6.77725 -3.86308,-4.2524 v -16.30085 l 2.89731,-2.83492 H 229.9247 Z"
         style="fill:#fefefe;fill-opacity:1;stroke:#000000;stroke-width:0.945716px;stroke-linecap:butt;stroke-linejoin:miter;stroke-opacity:1" />
      <path
         transform="matrix(0.90138601,0,0,0.99222542,-437.42287,-185.30615)"
         d="m 828.9375,369.5 -4.28125,4.28125 V 389.5 l 3.75,3.75 h 19.8125 v 15.1875 L 717.15625,541.28125 V 393.4375 h 21.78125 l 4.46875,-4.46875 V 373.0625 l -4.125,-3.1875 h -114.625 l -3.75,3.75 v 16.25 l 3.8125,3.8125 h 19.9375 v 272.25 l 3.75,3.75 H 671.0625 L 945.71875,386.28125 v -12.5 L 941.4375,369.5 Z"
         id="path3632"
         style="fill:none;stroke:#000000;stroke-width:1px;stroke-linecap:butt;stroke-linejoin:miter;stroke-opacity:1" />
      <path
         id="path3646"
         d="m 143.48158,204.87424 v 270.62073 l 3.18688,4.0092 -2.49916,5.24301 -7.06148,-7.74876 v -265.1081 z"
         style="fill:#fefefe;fill-opacity:1;stroke:#000000;stroke-width:0.945716px;stroke-linecap:butt;stroke-linejoin:miter;stroke-opacity:1" />
      <path
         id="path3644"
         d="m 125.82451,204.87424 -1.82108,6.51494 h 13.2028 l 7.2843,-6.51494 z"
         style="fill:#808080;fill-opacity:1;stroke:#000000;stroke-width:0.945716px;stroke-linecap:butt;stroke-linejoin:miter;stroke-opacity:1" />
      <path
         id="path3638"
         d="m 307.18636,212.19144 2.89731,-6.55577 -4.18501,-4.2524 v -14.52901 l 4.82886,-5.31551 H 411.4896 l 3.86308,5.66987 5.4727,-4.2524 -5.63366,-6.20141 H 306.86443 l -5.39221,5.93564 v 23.29957 l 5.59342,5.80276 m -87.54309,111.87785 -10.52288,28.10566 118.7898,-131.1155 v -15.59211 z"
         style="fill:#fefefe;fill-opacity:1;stroke:#000000;stroke-width:0.945716px;stroke-linecap:butt;stroke-linejoin:miter;stroke-opacity:1" />
      <path
         id="path3642"
         d="m 232.25896,185.83056 5.2356,-3.75862 v 22.8023 l -6.03231,6.64023 h -11.72317 v 112.38277 l -10.69882,27.81381 V 204.87424 h 19.57656 l 3.64214,-3.25747 z"
         style="fill:#808080;fill-opacity:1;stroke:#000000;stroke-width:0.945716px;stroke-linecap:butt;stroke-linejoin:miter;stroke-opacity:1" />
      <path
         transform="matrix(0.90138601,0,0,0.99222542,-437.42287,-185.30615)"
         d="m 828.9375,369.5 -4.28125,4.28125 V 389.5 l 3.75,3.75 h 19.8125 v 15.1875 L 717.15625,541.28125 V 393.4375 h 21.78125 l 4.46875,-4.46875 V 373.0625 l -4.125,-3.1875 h -114.625 l -3.75,3.75 v 16.25 l 3.8125,3.8125 h 19.9375 v 272.25 l 3.75,3.75 H 671.0625 L 945.71875,386.28125 v -12.5 L 941.4375,369.5 Z"
         id="path3622"
         style="fill:#cccccc;fill-opacity:1;stroke:#000000;stroke-width:1px;stroke-linecap:butt;stroke-linejoin:miter;stroke-opacity:1" />
      <path
         id="path3636"
         d="m 415.35268,185.9329 5.49849,-3.49448 v 21.92152 L 171.46006,484.88124 H 144.9826 l 2.52966,-5.5331 h 20.28119 L 415.03076,198.33573 Z"
         style="fill:#808080;fill-opacity:1;stroke:#000000;stroke-width:0.945716px;stroke-linecap:butt;stroke-linejoin:miter;stroke-opacity:1" />
      <path
         id="path3652"
         d="m 327.29631,205.25009 -5.57703,6.38966 h -14.56861 l 3.41452,-6.38966 c 0.11382,0 16.73112,0 16.73112,0 z"
         style="fill:#808080;fill-opacity:1;stroke:#000000;stroke-width:0.945716px;stroke-linecap:butt;stroke-linejoin:miter;stroke-opacity:1" />
      <g
         transform="matrix(0.90138601,0,0,0.99222542,-92.530288,-192.23791)"
         id="g3673">
        <path
           style="fill:#cccccc;fill-opacity:1;stroke:#000000;stroke-width:8;stroke-linecap:butt;stroke-linejoin:miter;stroke-miterlimit:10;stroke-dasharray:none;stroke-opacity:1"
           id="path3671"
           d="m 399.78125,560 a 1.2330102,1.2330102 0 0 0 -0.5625,0.28125 l -5.3125,4.5625 A 1.2330102,1.2330102 0 0 0 393.5625,565.375 L 388.25,580.25 a 1.2330102,1.2330102 0 0 0 0.28125,1.28125 l 4.0625,4.0625 a 1.2330102,1.2330102 0 0 0 0.875,0.34375 H 409.875 a 1.2330102,1.2330102 0 0 0 0.875,-0.34375 l 4.28125,-4.3125 a 1.2330102,1.2330102 0 0 0 0.3125,-0.53125 l 4.5625,-15.65625 a 1.2330102,1.2330102 0 0 0 -0.3125,-1.21875 l -3.53125,-3.53125 A 1.2330102,1.2330102 0 0 0 415.1875,560 h -15.15625 a 1.2330102,1.2330102 0 0 0 -0.25,0 z m -30.0625,41.9375 a 1.2330102,1.2330102 0 0 0 -0.9375,0.90625 l -2.03125,8.0625 a 1.2330102,1.2330102 0 0 0 1.1875,1.53125 h 9.65625 l -23.9375,68.34375 a 1.2330102,1.2330102 0 0 0 1.15625,1.625 h 34.84375 a 1.2330102,1.2330102 0 0 0 1.1875,-0.84375 l 2.28125,-7.34375 a 1.2330102,1.2330102 0 0 0 -1.1875,-1.59375 h -7.875 L 407.75,603.5625 a 1.2330102,1.2330102 0 0 0 -1.15625,-1.625 h -36.625 a 1.2330102,1.2330102 0 0 0 -0.25,0 z m 110.875,0.25 a 1.2330102,1.2330102 0 0 0 -0.6875,0.40625 l -7.25,8.1875 H 461.125 l -7.6875,-7.96875 a 1.2330102,1.2330102 0 0 0 -0.875,-0.375 H 425.03125 A 1.2330102,1.2330102 0 0 0 423.875,603.25 l -2.53125,7.5625 a 1.2330102,1.2330102 0 0 0 1.15625,1.625 h 7.375 l -22.9375,67.59375 a 1.2330102,1.2330102 0 0 0 1.15625,1.625 h 29.3125 a 1.2330102,1.2330102 0 0 0 1.15625,-0.8125 l 2.25,-6.59375 a 1.2330102,1.2330102 0 0 0 -1.15625,-1.625 h -5.125 l 14.625,-46.03125 H 475.625 l -16.6875,53.46875 a 1.2330102,1.2330102 0 0 0 1.1875,1.59375 h 28.28125 a 1.2330102,1.2330102 0 0 0 1.125,-0.75 l 2.53125,-6.0625 a 1.2330102,1.2330102 0 0 0 -1.125,-1.6875 h -5.125 l 14.875,-46.8125 h 25.1875 l -16.9375,53.71875 a 1.2330102,1.2330102 0 0 0 1.1875,1.59375 h 31.0625 a 1.2330102,1.2330102 0 0 0 1.15625,-0.78125 l 2.53125,-6.59375 a 1.2330102,1.2330102 0 0 0 -1.15625,-1.65625 h -6.15625 l 18.71875,-60.78125 a 1.2330102,1.2330102 0 0 0 -0.1875,-1.125 l -5.8125,-7.8125 a 1.2330102,1.2330102 0 0 0 -1,-0.46875 H 527.0625 a 1.2330102,1.2330102 0 0 0 -0.90625,0.375 l -7,7.6875 h -12.25 l -7.25,-7.9375 a 1.2330102,1.2330102 0 0 0 -0.90625,-0.375 h -17.90625 a 1.2330102,1.2330102 0 0 0 -0.25,0 z" />
        <path
           d="m 400.03125,561.21875 -5.3125,4.5625 -5.3125,14.875 4.0625,4.0625 H 409.875 l 4.28125,-4.3125 4.5625,-15.65625 -3.53125,-3.53125 z m -30.0625,41.9375 -2.03125,8.0625 h 11.375 l -24.5,69.96875 h 34.84375 l 2.28125,-7.34375 h -9.59375 l 24.25,-70.6875 z m 110.875,0.25 L 473.25,612 h -12.625 l -8.0625,-8.34375 h -27.53125 l -2.53125,7.5625 h 9.09375 l -23.5,69.21875 h 29.3125 l 2.25,-6.59375 h -6.8125 L 448.25,625.375 h 29.0625 l -17.1875,55.0625 h 28.28125 l 2.53125,-6.0625 h -6.8125 l 15.65625,-49.25 h 27.78125 l -17.4375,55.3125 h 31.0625 l 2.53125,-6.59375 H 535.875 l 19.21875,-62.375 -5.8125,-7.8125 H 527.0625 l -7.34375,8.0625 h -13.375 l -7.59375,-8.3125 z"
           id="path3665"
           style="fill:#cccccc;fill-opacity:1;stroke:#000000;stroke-width:1;stroke-linecap:butt;stroke-linejoin:miter;stroke-miterlimit:10;stroke-dasharray:none;stroke-opacity:1" />
      </g>
    </g>
  </g>
</svg>
