<?xml version='1.0' encoding='utf-8'?>
<svg xmlns="http://www.w3.org/2000/svg" width="343pt" height="340pt" id="svg3001" version="1.1"> <defs id="defs3003"> <linearGradient id="linearGradient5338"> <stop style="stop-color:#e1d7d7;stop-opacity:1;" offset="0" id="stop5340"/> </linearGradient> </defs> <metadata id="metadata3007"> </metadata> <g id="layer1" style="display:inline"> <g id="g6265" transform="translate(2,0)"> <path id="rect5430" d="M 109.46875,30.875 2.5,217.5625 107.1875,405.4375 318.875,406.625 425.875,219.9375 321.15625,32.0625 109.46875,30.875 z" style="fill:#005300;fill-opacity:1;stroke:none"/> <path id="path8658-1" d="M 87.71875,68.8125 13.53125,198.28125 68.625,154.1875 29.71875,204.625 c 28.762245,22.0303 55.09375,21 55.09375,21 l 38.75,-37.625 -23.625,43.1875 c 0,0 80.02234,5.46313 134.34375,-15.15625 -45.23485,-22.34299 -83.4375,-75.09375 -83.4375,-75.09375 l -22.15625,35.375 12.875,-45.75 C 136.96202,112.31357 108.625,100.34375 108.625,100.34375 l -27.96875,27.75 L 99.625,92.125 C 97.923337,83.411313 93.449613,75.612043 87.71875,68.8125 z" style="fill:#008000;stroke:#000000;stroke-width:0;stroke-linecap:butt;stroke-linejoin:miter;stroke-miterlimit:4;stroke-opacity:1;stroke-dasharray:none"/> <path id="path8668" d="m 109.46875,30.875 -43.1875,75.375 0.625,3.53125 c 0,0 29.556532,18.26324 53.6875,6.28125 l 13.21875,-51.9375 -2.59375,54.0625 c 0,0 24.74852,10.88714 49.34375,1.1875 l 13.1875,-46.84375 1.5625,48.03125 c 0,0 24.41972,4.27197 105.28125,-29.125 -19.57216,-29.21678 -35.28687,-47.887464 -47.03125,-59.75 l -39.125,-0.21875 -15.46875,22.375 6.8125,-22.4375 -68.59375,-0.375 -4.15625,9.09375 c 0,0 0.95836,-6.098005 1.4375,-9.125 l -25,-0.125 z" style="fill:#003a00;fill-opacity:1;stroke:#000000;stroke-width:0;stroke-linecap:butt;stroke-linejoin:miter;stroke-miterlimit:4;stroke-opacity:1;stroke-dasharray:none"/> <path id="path8668-4" d="M 34.03125,193.75 C 24.280952,208.33668 16.625329,221.02077 10.5625,232 L 79.53125,355.8125 123.375,340.125 c 0,0 0.62877,-27.0263 -17.71875,-46.0625 l -48.3125,5.65625 43.78125,-19.75 c 0,0 -5.379178,-24.20861 -67.09375,-86.21875 z m 91.4375,157 -45.15625,6.46875 26.875,48.21875 28.53125,0.15625 4.40625,-2.8125 c 0,0 5.624,-34.29476 -14.65625,-52.03125 z" style="fill:#003a00;fill-opacity:1;stroke:#000000;stroke-width:0;stroke-linecap:butt;stroke-linejoin:miter;stroke-miterlimit:4;stroke-opacity:1;stroke-dasharray:none"/> <path id="path8660" d="m 254.46875,301.90625 c -55.40884,-0.62709 -94.08915,35.8015 -110.53125,66.40625 -6.26316,11.65802 -12.23631,24.41155 -17.6875,37.21875 l 61.78125,0.375 c -2.71538,-12.74323 -6.09375,-22.875 -6.09375,-22.875 l 9.25,22.875 45.6875,0.25 -1.6875,-66 11,66.0625 35.90625,0.1875 2.09375,-53 6.875,53.0625 12.5625,0.0625 c 6.3924,-6.6678 15.53955,-14.62192 27.28125,-20.875 l 25.5625,-44.625 c -38.19246,-27.89478 -72.46765,-38.79077 -102,-39.125 z" style="fill:#00d800;fill-opacity:1;stroke:#000000;stroke-width:0;stroke-linecap:butt;stroke-linejoin:miter;stroke-miterlimit:4;stroke-opacity:1;stroke-dasharray:none"/> <path id="path8658" d="m 379.21875,136.25 c -42.08613,21.90905 -66.40625,55.5 -66.40625,55.5 l 46.90625,33.28125 -51.9375,-18.1875 c -23.44344,23.11795 -20.3125,62.125 -20.3125,62.125 L 347.65625,309.4375 287.875,287.375 c -12.42551,34.03246 -3.5625,58.84375 -3.5625,58.84375 l 47.5,25.75 -48.28125,-9.65625 c 0,0 4.61009,19.22608 13.65625,44.1875 l 21.6875,0.125 95.34375,-166.34375 -20.03125,-6.15625 23.1875,0.65625 8.5,-14.84375 -46.65625,-83.6875 z" style="fill:#008000;stroke:#000000;stroke-width:0;stroke-linecap:butt;stroke-linejoin:miter;stroke-miterlimit:4;stroke-opacity:1;stroke-dasharray:none"/> <path id="path8666" d="m 280.625,162.84375 c -28.395,-0.50188 -151.49293,56.36327 -211.65625,174 l 14.21875,25.5 C 132.87369,331.36053 173.15625,340.25 173.15625,340.25 l -9.6875,-78.09375 25.3125,73.5625 c 0,0 36.91105,-0.46575 45.84375,-28.125 -1.09796,-2.41281 -33.15625,-71.1875 -33.15625,-71.1875 l 47.5,66.1875 c 0,0 31.1137,0.11899 52.75,-30.28125 L 252.125,214.34375 315.46875,265.8125 c 17.53239,-31.1356 78.82801,-28.33117 99.28125,-26.46875 l 1.65625,-2.875 C 394.57595,221.37048 308.85169,163.34266 280.625,162.84375 z" style="fill:#009e00;fill-opacity:1;stroke:#000000;stroke-width:0;stroke-linecap:butt;stroke-linejoin:miter;stroke-miterlimit:4;stroke-opacity:1;stroke-dasharray:none"/> <path id="path8664" d="m 238.46875,31.59375 c -14.30823,13.680797 -21.75,31.4375 -21.75,31.4375 -1.78904,5.69685 -0.59639,12.74792 1.46875,18.3125 L 247.375,75.8125 220.96875,92.03125 c -5.07172,12.57903 5.75,28.5625 5.75,28.5625 L 247.5,114.375 228.59375,128.71875 c 0,0 4.39193,52.88435 29.90625,94 19.24381,-57.89718 38.875,-81.90625 38.875,-81.90625 l -13.53125,-25.125 19.3125,16.28125 c 10.95958,-1.51937 19.5,-22.25 19.5,-22.25 l -21.09375,-32.9375 29.65625,24.5 c 11.69717,-1.03572 12.03125,-16 12.03125,-16 0,0 -8.53816,-32.707594 -31.75,-53.28125 l -73.03125,-0.40625 z" style="fill:#00b900;fill-opacity:1;stroke:#000000;stroke-width:0;stroke-linecap:butt;stroke-linejoin:miter;stroke-miterlimit:4;stroke-opacity:1;stroke-dasharray:none"/> <path id="path6184" d="M 340.46875,66.71875 321.15625,32.0625 312.625,32 c 10.83424,23.444255 10.84375,40.65625 10.84375,40.65625 l 17,-5.9375 z" style="fill:#009e00;fill-opacity:1;stroke:#000000;stroke-width:0;stroke-linecap:butt;stroke-linejoin:miter;stroke-miterlimit:4;stroke-opacity:1;stroke-dasharray:none"/> <path id="path6182" d="M 371.9375,123.15625 346.59375,77.6875 331.15625,87 c 0,0 8.207,35.9777 37.125,38.90625 0.12398,-0.092 3.15971,-2.37579 3.65625,-2.75 z" style="fill:#009e00;fill-opacity:1;stroke:#000000;stroke-width:0;stroke-linecap:butt;stroke-linejoin:miter;stroke-miterlimit:4;stroke-opacity:1;stroke-dasharray:none"/> <path id="path6180" d="m 400.3125,174.09375 -21.34375,-38.3125 -2.8125,3.09375 c 0,0 4.47335,19.7974 24.15625,35.21875 z" style="fill:#009e00;fill-opacity:1;stroke:#000000;stroke-width:0;stroke-linecap:butt;stroke-linejoin:miter;stroke-miterlimit:4;stroke-opacity:1;stroke-dasharray:none"/> </g> </g> <g id="layer2" style="display:inline"> <path style="fill:#140a0a;fill-opacity:1;stroke:#000000;stroke-width:3.75;stroke-linecap:butt;stroke-linejoin:miter;stroke-miterlimit:4;stroke-opacity:1;stroke-dasharray:none;display:inline" d="m 198.25,101.875 c 0,0 -14.91649,-5.697627 -19.375,-13.125 -4.45851,-7.427373 -22.67845,-17.425281 -19.375,16.25 1.5847,7.89403 11.875,12.5 11.875,12.5" id="path3806"/> <path style="fill:#1e1919;fill-opacity:1;stroke:#000000;stroke-width:3.75;stroke-linecap:butt;stroke-linejoin:miter;stroke-miterlimit:4;stroke-opacity:1;stroke-dasharray:none" d="m 107,315 c 0,0 -15.66646,-74.37707 1.25,-111.25 16.91646,-36.87293 36.78663,-70.244 59.375,-86.25 22.58837,-16.006 56.32223,-35.199073 82.5,-37.5 26.17777,-2.300927 51.92522,8.403421 73.75,30.625 21.82478,22.22158 44.4415,58.19849 60.625,86.875 16.1835,28.67651 20.46875,58.59375 20.46875,58.59375 L 319.89062,404.76563 152.625,404.11612 C 162.86162,345.79144 180.36098,310.11249 217,286.25 c 36.63902,-23.86249 43.30889,-25.68405 37.5,-40.625 -5.80889,-14.94095 -42.96923,-2.03236 -71.25,11.25 C 154.96923,270.15736 147.625,320 147.625,320 130.74875,328.51464 116.58545,327.62854 107,315 z" id="path3797"/> <path style="fill:#1e1919;fill-opacity:1;stroke:#000000;stroke-width:3.75;stroke-linecap:butt;stroke-linejoin:miter;stroke-miterlimit:4;stroke-opacity:1;stroke-dasharray:none;display:inline" d="m 220.75,91.875 c 0,0 25.64751,-54.738147 41.25,-53.75 15.60249,0.988147 15.3945,21.028717 10,39.375 -5.3945,18.346283 7.4776,17.572637 5,28.75 -2.4776,11.17736 -30,13.75 -30,13.75" id="path3802"/> <path style="fill:none;stroke:#736969;stroke-width:3.75;stroke-linecap:butt;stroke-linejoin:miter;stroke-miterlimit:4;stroke-opacity:1;stroke-dasharray:none;display:inline" d="m 253.875,77.5 c 0,0 -2.05074,19.727456 -11.875,22.5 7.67574,-5.352456 18.75,-4.375 18.75,-4.375" id="path3804"/> <path style="fill:#e1d7d7;fill-opacity:1;stroke:none" d="m 165.29561,359.47898 c 0,0 76.87631,34.74823 169.67314,15.83352 l -15.70868,27.77459 -164.40641,-0.51777 c 0.96051,-11.4286 10.44195,-43.09034 10.44195,-43.09034 z" id="path3838"/> </g> <g id="layer4" style="display:inline"> <path style="fill:#1e1919;fill-opacity:1;stroke:#000000;stroke-width:3.75;stroke-linecap:butt;stroke-linejoin:miter;stroke-miterlimit:4;stroke-opacity:1;stroke-dasharray:none" d="m 336.6875,375.3125 c 0,0 -29.76731,-0.44311 -50.9375,-25.9375 -4.60769,9.50561 -39.67121,22.08553 -52.1875,10 -12.51629,-12.08553 -10.37253,-44.64791 -6.5625,-55 3.81003,-10.35209 10.11095,-14.77423 13.125,-15 3.01405,-0.22577 6.91759,1.39646 6.91759,1.39646 4.12387,17.1185 6.40476,10.28325 5.58241,12.35354 l -8.125,0.625 18.75,0 -10.625,-0.625 c -7.39308,-6.40597 -7.49625,-24.13702 -2.25413,-32.30393 5.24212,-8.16691 18.07455,-18.66409 24.12913,-17.69607 6.05458,0.96802 4.17363,29.35279 12.5,40.625 6.77958,-10.27245 26.11148,-9.65055 46.875,2.5 l -17.5,-8.75 c -3.97245,-10.12654 14.20516,-51.4393 33.75,-45" id="path3812"/> </g> <g id="layer6" style="display:inline"> <path style="fill:#ffffff;fill-opacity:1;stroke:#000000;stroke-width:3.75;stroke-linecap:butt;stroke-linejoin:miter;stroke-miterlimit:4;stroke-opacity:1;stroke-dasharray:none" d="m 230.92582,237.6167 c 0,0 37.7149,-14.56694 42.06029,-31.91784 4.34539,-17.3509 -4.88478,-22.48283 -9.3566,-24.6507 l -16.79379,2.65165 c 15.1018,-3.42194 11.79846,-2.34609 18.87406,-14.91879 l -3.84804,11.38326 c 27.66246,9.84185 61.19236,17.99473 51.68498,33.9889 -9.50738,15.99417 -39.50936,20.51273 -82.6209,23.46352 z" id="path3818"/> <path style="fill:none;stroke:#000000;stroke-width:1.25;stroke-linecap:butt;stroke-linejoin:miter;stroke-miterlimit:4;stroke-opacity:1;stroke-dasharray:none" d="m 276.375,224.0625 c 0,0 13.75,-7.39583 15.46875,-13.28125 C 293.5625,204.89583 291.6875,197.5 291.6875,197.5" id="path3820"/> <path style="fill:none;stroke:#000000;stroke-width:1.25;stroke-linecap:butt;stroke-linejoin:miter;stroke-miterlimit:4;stroke-opacity:1;stroke-dasharray:none" d="m 285.75,206.25 12.5,4.0625" id="path3830"/> <path style="fill:none;stroke:#000000;stroke-width:1.25;stroke-linecap:butt;stroke-linejoin:miter;stroke-miterlimit:4;stroke-opacity:1;stroke-dasharray:none" d="m 282.625,215.9375 8.4375,3.125" id="path3832"/> </g> <g id="layer5" style="display:inline"> <path style="fill:#ffffff;fill-opacity:1;stroke:#000000;stroke-width:3.75;stroke-miterlimit:4;stroke-opacity:1;stroke-dasharray:none" id="path3815" d="m 235.113,169.55768 a 26.958447,30.052038 0 1 1 -53.91689,0 26.958447,30.052038 0 1 1 53.91689,0 z" transform="translate(1.1161165,-7.9549513)"/> <path style="fill:#000000;fill-opacity:1;stroke:#000000;stroke-width:1.25;stroke-miterlimit:4;stroke-opacity:1;stroke-dasharray:none" id="path3834" d="m 226.875,161.875 a 13.4375,15.3125 0 1 1 -26.875,0 13.4375,15.3125 0 1 1 26.875,0 z" transform="translate(2,0)"/> <path style="fill:#ffffff;fill-opacity:1;stroke:#ffffff;stroke-width:1.25;stroke-miterlimit:4;stroke-opacity:1;stroke-dasharray:none" id="path3836" d="m 221.875,154.53125 a 3.90625,3.90625 0 1 1 -7.8125,0 3.90625,3.90625 0 1 1 7.8125,0 z" transform="translate(2,0)"/> </g> <g id="g3840" style="display:inline"> <path transform="matrix(0.9633423,0.01708321,-0.01717861,0.9998477,217.97914,113.76599)" d="m 216.25,102.5 -105.95994,188.52799 -216.25,2.5 L -216.25,107.5 l 105.95994,-188.527993 216.25,-2.5 z" id="path3844" style="fill:none;stroke:#000000;stroke-width:7.5806098;stroke-miterlimit:4;stroke-opacity:1;stroke-dasharray:none"/> </g> </svg>