<?xml version="1.0" encoding="UTF-8" standalone="no"?>
<!-- Generator: Adobe Illustrator 16.0.3, SVG Export Plug-In . SVG Version: 6.00 Build 0)  -->

<svg
   version="1.1"
   x="0px"
   y="0px"
   width="606"
   height="380.00101"
   viewBox="-400 0 606 380.00099"
   enable-background="new -400 0 800 400.002"
   xml:space="preserve"
   id="svg898"
   sodipodi:docname="exitsign.svg"
   inkscape:version="1.1 (c4e8f9ed74, 2021-05-24)"
   xmlns:inkscape="http://www.inkscape.org/namespaces/inkscape"
   xmlns:sodipodi="http://sodipodi.sourceforge.net/DTD/sodipodi-0.dtd"
   xmlns="http://www.w3.org/2000/svg"
   xmlns:svg="http://www.w3.org/2000/svg"><defs
   id="defs902"><rect
     x="482.02597"
     y="154.5847"
     width="843.63007"
     height="335.33929"
     id="rect8571" /></defs><sodipodi:namedview
   id="namedview900"
   pagecolor="#ffffff"
   bordercolor="#666666"
   borderopacity="1.0"
   inkscape:pageshadow="2"
   inkscape:pageopacity="0.0"
   inkscape:pagecheckerboard="0"
   showgrid="false"
   inkscape:zoom="0.669375"
   inkscape:cx="571.42857"
   inkscape:cy="-13.445378"
   inkscape:window-width="1916"
   inkscape:window-height="1029"
   inkscape:window-x="0"
   inkscape:window-y="0"
   inkscape:window-maximized="1"
   inkscape:current-layer="svg898"
   inkscape:snap-global="false"
   fit-margin-top="0"
   fit-margin-left="0"
   fit-margin-right="0"
   fit-margin-bottom="0" />

<g
   id="Layer_3"
   transform="translate(-10,-10.002)">
	<g
   id="Layer_2">
		<path
   fill="#0F8558"
   d="m -335.226,384.763 h 148.933 c 0,0 13.517,-12.784 20.302,-19.216 5.266,-4.479 5.728,-7.519 14.766,-7.329 9.826,0.164 19.679,0.353 29.504,0.516 l -27.741,26.029 h 41.312 L -86,362.507 V 204.888 h -40.714 c -6.378,0 -7.274,-0.868 -11.4,-4.994 l -23.587,-27.876 c -6.542,14.304 -12.703,26.464 -19.217,40.28 -0.733,1.411 -2.47,4.587 -1.167,7.057 l 64.818,130.883 -23.777,-0.08 c -12.432,0.271 -17.616,-8.307 -21.986,-15.988 -17.534,-35.34 -35.15,-70.653 -52.712,-105.993 l -3.311,62.89 c -0.869,10.885 -8.224,13.653 -17.86,13.953 l -108.897,0.244 c 0,-12.514 12.405,-29.044 32.599,-29.83 0,0 38.896,0.434 59.226,0.516 2.578,0 3.284,-1.438 3.583,-3.583 0.95,-16.178 1.846,-32.463 2.85,-48.64 0.624,-8.035 1.33,-13.599 3.664,-19.679 7.601,-16.287 15.2,-32.491 22.8,-48.722 L -248.909,155 c -0.733,-0.027 -1.303,0.136 -1.683,0.788 l -20.14,35.286 c -8.305,15.146 -30.753,4.098 -23.234,-11.97 l 24.701,-41.312 c 4.342,-6.459 6.324,-8.686 17.615,-9.039 0,0 52.739,-0.081 79.149,-0.081 8.577,-0.19 9.554,2.497 13.653,6.867 11.02,13.599 23.071,28.093 33.819,40.769 1.493,1.792 2.334,2.524 5.89,2.524 H -86 V 54.706 l -227.078,0.218 c 0,0 0.353,144.373 0.163,215.026 -23.152,0.731 -39.085,18.238 -39.954,40.795 13.029,0.162 26.437,-0.462 39.791,-0.299 v 52.061 z M -390,390.003 V 10.002 H 216 V 390.003 Z M -169.274,68.359 c 15.119,0 26.708,11.618 26.708,26.817 0,15.227 -11.589,26.845 -26.708,26.845 -15.119,0 -26.736,-11.618 -26.736,-26.845 0,-15.199 11.617,-26.817 26.736,-26.817 z"
   id="path894"
   style="fill:#52b256;fill-opacity:1"
   sodipodi:nodetypes="cccccccccsccccccccccccccccccccccccccscccccccccccccsssss" />
	</g>
</g>
<text
   xml:space="preserve"
   transform="translate(-522.48255,-87.04544)"
   id="text8569"
   style="font-size:96px;line-height:1.25;font-family:System-ui;-inkscape-font-specification:'System-ui, Normal';letter-spacing:0px;word-spacing:0px;writing-mode:lr-tb;white-space:pre;shape-inside:url(#rect8571)"><tspan
     x="482.02539"
     y="327.52883"
     id="tspan21617"><tspan
       style="font-weight:bold;font-size:192px;font-family:Arial;-inkscape-font-specification:'Arial Bold';fill:#ffffff"
       id="tspan21615">:q</tspan></tspan></text></svg>
